<svg width="500.587255859375px" height="122px" xmlns="http://www.w3.org/2000/svg" viewBox="-0.29362792968748863 14 500.587255859375 122" style="background:#fff" preserveAspectRatio="xMidYMid"><defs><filter id="editing-marble" x="-100%" y="-100%" width="300%" height="300%"><feFlood flood-color="#b44607" result="flood-1"></feFlood><feComposite operator="in" in="flood-1" in2="SourceAlpha" result="flood-2"></feComposite><feTurbulence baseFrequency="0.07" type="fractalNoise" numOctaves="1" seed="2" result="bs-1"></feTurbulence><feGaussianBlur stdDeviation="1" in="flood-2" result="bs-2"></feGaussianBlur><feDisplacementMap scale="110" in="bs-2" in2="bs-1" result="bs-3"></feDisplacementMap><feComposite operator="in" in="bs-3" in2="SourceAlpha" result="texture"></feComposite><feMerge><feMergeNode in="SourceGraphic"></feMergeNode><feMergeNode in="texture"></feMergeNode></feMerge></filter></defs><g filter="url(#editing-marble)"><g transform="translate(73.41297209262848, 98.68000030517578)"><path d="M34.50-13.25L34.50-13.25L34.50-13.25Q36.16-12.03 36.16-9.44L36.16-9.44L36.16-9.44Q36.16-6.85 35.04-5.02L35.04-5.02L35.04-5.02Q33.92-3.20 31.74-1.79L31.74-1.79L31.74-1.79Q27.07 1.22 18.91 1.22L18.91 1.22L18.91 1.22Q10.75 1.22 6.30-3.04L6.30-3.04L6.30-3.04Q1.86-7.30 1.86-14.85L1.86-14.85L1.86-14.85Q1.86-25.54 7.42-33.66L7.42-33.66L7.42-33.66Q11.65-39.68 19.20-42.24L19.20-42.24L19.20-42.24Q23.10-43.52 26.94-43.52L26.94-43.52L26.94-43.52Q30.78-43.52 33.15-43.01L33.15-43.01L33.15-43.01Q35.52-42.50 37.31-41.47L37.31-41.47L37.31-41.47Q41.22-39.23 41.22-35.65L41.22-35.65L41.22-35.65Q41.22-32.38 38.14-29.95L38.14-29.95L38.14-29.95Q35.33-27.78 33.02-27.78L33.02-27.78L33.02-27.78Q30.72-27.78 29.76-28.10L29.76-28.10L29.76-28.10Q30.02-30.40 30.02-31.90L30.02-31.90L30.02-31.90Q30.02-33.41 29.95-34.50L29.95-34.50L29.95-34.50Q29.89-35.58 29.57-36.61L29.57-36.61L29.57-36.61Q28.93-38.98 26.98-38.98L26.98-38.98L26.98-38.98Q25.02-38.98 23.07-37.15L23.07-37.15L23.07-37.15Q21.12-35.33 19.46-32.26L19.46-32.26L19.46-32.26Q15.68-25.28 15.68-17.02L15.68-17.02L15.68-17.02Q15.68-13.06 17.92-10.78L17.92-10.78L17.92-10.78Q20.16-8.51 24.96-8.51L24.96-8.51L24.96-8.51Q28.54-8.51 31.94-10.88L31.94-10.88L31.94-10.88Q33.41-11.90 34.50-13.25ZM44.26-1.92L44.26-1.92L44.26-1.92Q42.75-3.58 42.08-6.21L42.08-6.21L42.08-6.21Q41.41-8.83 41.41-13.12L41.41-13.12L41.41-13.12Q41.41-17.41 42.88-21.31L42.88-21.31L42.88-21.31Q44.35-25.22 47.04-28.03L47.04-28.03L47.04-28.03Q52.54-33.92 61.63-33.92L61.63-33.92L61.63-33.92Q64.90-33.92 67.26-32.83L67.26-32.83L78.21-33.92L73.47-8.96L73.47-8.96Q73.28-8.19 73.28-6.78L73.28-6.78L73.28-6.78Q73.28-5.38 74.14-4.48L74.14-4.48L74.14-4.48Q75.01-3.58 76.29-3.46L76.29-3.46L76.29-3.46Q75.65-1.28 73.31 0L73.31 0L73.31 0Q70.98 1.28 68.35 1.28L68.35 1.28L68.35 1.28Q65.73 1.28 63.97 0.29L63.97 0.29L63.97 0.29Q62.21-0.70 61.70-2.37L61.70-2.37L61.70-2.37Q60.67-0.77 58.50 0.26L58.50 0.26L58.50 0.26Q56.32 1.28 53.41 1.28L53.41 1.28L53.41 1.28Q50.50 1.28 48.13 0.51L48.13 0.51L48.13 0.51Q45.76-0.26 44.26-1.92ZM57.76-27.90L57.76-27.90L57.76-27.90Q57.02-26.75 56.38-24.80L56.38-24.80L56.38-24.80Q55.74-22.85 54.69-17.63L54.69-17.63L54.69-17.63Q53.63-12.42 53.63-8.70L53.63-8.70L53.63-8.70Q53.63-4.99 54.21-3.90L54.21-3.90L54.21-3.90Q54.78-2.82 55.81-2.82L55.81-2.82L55.81-2.82Q57.86-2.82 59.36-4.77L59.36-4.77L59.36-4.77Q60.86-6.72 61.44-10.18L61.44-10.18L64.83-28.93L64.83-28.93Q63.49-30.08 61.92-30.08L61.92-30.08L61.92-30.08Q60.35-30.08 59.42-29.57L59.42-29.57L59.42-29.57Q58.50-29.06 57.76-27.90ZM96.96-3.52L96.96-3.52L96.96-3.52Q94.98 1.28 88.64 1.28L88.64 1.28L88.64 1.28Q85.44 1.28 83.39-0.96L83.39-0.96L83.39-0.96Q81.73-2.82 81.73-4.93L81.73-4.93L81.73-4.93Q81.73-9.73 83.97-20.22L83.97-20.22L88.64-44.80L101.63-46.08L95.42-13.70L95.42-13.70Q94.34-8.96 94.34-7.30L94.34-7.30L94.34-7.30Q94.34-3.65 96.96-3.52ZM133.82-26.62L133.82-26.62L133.82-26.62Q133.82-23.94 131.58-22.27L131.58-22.27L131.58-22.27Q129.34-20.61 125.70-20.61L125.70-20.61L125.70-20.61Q124.16-20.61 123.26-21.06L123.26-21.06L123.26-21.06Q123.97-22.72 124.19-24.80L124.19-24.80L124.19-24.80Q124.42-26.88 124.42-27.46L124.42-27.46L124.42-27.46Q124.42-30.14 122.56-30.14L122.56-30.14L122.56-30.14Q121.28-30.14 119.84-28.54L119.84-28.54L119.84-28.54Q118.40-26.94 117.18-24.45L117.18-24.45L117.18-24.45Q114.50-18.69 114.50-12.86L114.50-12.86L114.50-12.86Q114.50-9.66 115.71-8.22L115.71-8.22L115.71-8.22Q116.93-6.78 119.62-6.78L119.62-6.78L119.62-6.78Q123.33-6.78 126.27-9.86L126.27-9.86L126.27-9.86Q127.10-10.82 127.55-11.90L127.55-11.90L127.55-11.90Q129.98-10.62 129.98-7.10L129.98-7.10L129.98-7.10Q129.98-3.52 126.02-1.15L126.02-1.15L126.02-1.15Q121.92 1.28 115.39 1.28L115.39 1.28L115.39 1.28Q102.40 1.28 102.40-12.48L102.40-12.48L102.40-12.48Q102.40-22.53 108.10-28.29L108.10-28.29L108.10-28.29Q113.60-33.92 123.71-33.92L123.71-33.92L123.71-33.92Q133.82-33.92 133.82-26.62ZM140.99 0L133.63 0L145.22-42.24L158.59-42.24L161.54-18.11L173.44-42.24L184.64-42.24L185.79-10.62L185.79-10.62Q186.05-4.35 189.12-2.43L189.12-2.43L189.12-2.43Q188.42-1.15 186.37 0.06L186.37 0.06L186.37 0.06Q184.32 1.28 181.60 1.28L181.60 1.28L181.60 1.28Q178.88 1.28 177.28 0.51L177.28 0.51L177.28 0.51Q175.68-0.26 174.78-1.54L174.78-1.54L174.78-1.54Q173.18-3.84 173.18-8.26L173.18-8.26L173.18-28.03L160.58 0L152.64 0L148.16-28.74L140.99 0ZM194.66-1.92L194.66-1.92L194.66-1.92Q193.15-3.58 192.48-6.21L192.48-6.21L192.48-6.21Q191.81-8.83 191.81-13.12L191.81-13.12L191.81-13.12Q191.81-17.41 193.28-21.31L193.28-21.31L193.28-21.31Q194.75-25.22 197.44-28.03L197.44-28.03L197.44-28.03Q202.94-33.92 212.03-33.92L212.03-33.92L212.03-33.92Q215.30-33.92 217.66-32.83L217.66-32.83L228.61-33.92L223.87-8.96L223.87-8.96Q223.68-8.19 223.68-6.78L223.68-6.78L223.68-6.78Q223.68-5.38 224.54-4.48L224.54-4.48L224.54-4.48Q225.41-3.58 226.69-3.46L226.69-3.46L226.69-3.46Q226.05-1.28 223.71 0L223.71 0L223.71 0Q221.38 1.28 218.75 1.28L218.75 1.28L218.75 1.28Q216.13 1.28 214.37 0.29L214.37 0.29L214.37 0.29Q212.61-0.70 212.10-2.37L212.10-2.37L212.10-2.37Q211.07-0.77 208.90 0.26L208.90 0.26L208.90 0.26Q206.72 1.28 203.81 1.28L203.81 1.28L203.81 1.28Q200.90 1.28 198.53 0.51L198.53 0.51L198.53 0.51Q196.16-0.26 194.66-1.92ZM208.16-27.90L208.16-27.90L208.16-27.90Q207.42-26.75 206.78-24.80L206.78-24.80L206.78-24.80Q206.14-22.85 205.09-17.63L205.09-17.63L205.09-17.63Q204.03-12.42 204.03-8.70L204.03-8.70L204.03-8.70Q204.03-4.99 204.61-3.90L204.61-3.90L204.61-3.90Q205.18-2.82 206.21-2.82L206.21-2.82L206.21-2.82Q208.26-2.82 209.76-4.77L209.76-4.77L209.76-4.77Q211.26-6.72 211.84-10.18L211.84-10.18L215.23-28.93L215.23-28.93Q213.89-30.08 212.32-30.08L212.32-30.08L212.32-30.08Q210.75-30.08 209.82-29.57L209.82-29.57L209.82-29.57Q208.90-29.06 208.16-27.90ZM251.20-22.46L251.20-22.46L251.20-22.46Q252.10-24.83 252.10-26.88L252.10-26.88L252.10-26.88Q252.10-30.66 249.02-30.66L249.02-30.66L249.02-30.66Q247.42-30.66 246.11-29.22L246.11-29.22L246.11-29.22Q244.80-27.78 244.80-25.98L244.80-25.98L244.80-25.98Q244.80-24.70 245.82-23.68L245.82-23.68L245.82-23.68Q247.30-22.27 251.07-19.97L251.07-19.97L251.07-19.97Q254.85-17.66 256.29-15.78L256.29-15.78L256.29-15.78Q257.73-13.89 257.73-11.30L257.73-11.30L257.73-11.30Q257.73-8.70 256.48-6.34L256.48-6.34L256.48-6.34Q255.23-3.97 252.99-2.30L252.99-2.30L252.99-2.30Q248.19 1.28 240.51 1.28L240.51 1.28L240.51 1.28Q236.35 1.28 233.15-0.90L233.15-0.90L233.15-0.90Q229.95-3.01 229.95-5.50L229.95-5.50L229.95-5.50Q229.95-8 231.78-9.47L231.78-9.47L231.78-9.47Q233.60-10.94 236.29-10.94L236.29-10.94L236.29-10.94Q238.98-10.94 240.64-9.92L240.64-9.92L240.64-9.92Q239.81-7.81 239.81-6.40L239.81-6.40L239.81-6.40Q239.81-2.18 243.39-2.18L243.39-2.18L243.39-2.18Q244.93-2.18 245.95-3.14L245.95-3.14L245.95-3.14Q246.98-4.10 246.98-5.76L246.98-5.76L246.98-5.76Q246.98-9.02 241.47-12.48L241.47-12.48L241.47-12.48Q236.99-15.42 235.97-16.58L235.97-16.58L235.97-16.58Q234.24-18.62 234.24-21.18L234.24-21.18L234.24-21.18Q234.24-23.74 235.46-26.18L235.46-26.18L235.46-26.18Q236.67-28.61 238.91-30.34L238.91-30.34L238.91-30.34Q243.58-33.92 251.71-33.92L251.71-33.92L251.71-33.92Q255.87-33.92 258.34-32.26L258.34-32.26L258.34-32.26Q260.80-30.59 260.80-27.78L260.80-27.78L260.80-27.78Q260.80-24.96 259.10-23.36L259.10-23.36L259.10-23.36Q257.41-21.76 254.34-21.76L254.34-21.76L254.34-21.76Q252.22-21.76 251.20-22.46ZM264.19-6.40L264.19-6.40L264.19-6.40Q264.19-8.13 265.09-12.48L265.09-12.48L268.48-29.76L264.70-29.76L264.96-31.68L264.96-31.68Q272.64-33.98 280.06-39.62L280.06-39.62L283.14-39.62L281.60-32.64L286.59-32.64L286.02-29.76L281.09-29.76L277.82-12.48L277.82-12.48Q276.99-8.51 276.99-7.17L276.99-7.17L276.99-7.17Q276.99-4.10 279.68-3.46L279.68-3.46L279.68-3.46Q279.04-1.28 276.74 0L276.74 0L276.74 0Q274.43 1.28 271.17 1.28L271.17 1.28L271.17 1.28Q267.90 1.28 266.05-0.77L266.05-0.77L266.05-0.77Q264.19-2.82 264.19-6.40ZM311.94-10.82L311.94-10.82L311.94-10.82Q313.54-9.73 313.54-7.33L313.54-7.33L313.54-7.33Q313.54-4.93 312.32-3.39L312.32-3.39L312.32-3.39Q311.10-1.86 309.12-0.83L309.12-0.83L309.12-0.83Q305.02 1.28 300.61 1.28L300.61 1.28L300.61 1.28Q296.19 1.28 293.60 0.32L293.60 0.32L293.60 0.32Q291.01-0.64 289.28-2.43L289.28-2.43L289.28-2.43Q285.89-5.82 285.89-12.03L285.89-12.03L285.89-12.03Q285.89-21.70 291.14-27.58L291.14-27.58L291.14-27.58Q296.77-33.92 306.56-33.92L306.56-33.92L306.56-33.92Q312.64-33.92 315.65-31.36L315.65-31.36L315.65-31.36Q317.89-29.44 317.89-26.30L317.89-26.30L317.89-26.30Q317.89-15.04 298.43-15.04L298.43-15.04L298.43-15.04Q298.18-13.38 298.18-11.97L298.18-11.97L298.18-11.97Q298.18-9.02 299.49-7.90L299.49-7.90L299.49-7.90Q300.80-6.78 303.23-6.78L303.23-6.78L303.23-6.78Q305.66-6.78 308.26-7.90L308.26-7.90L308.26-7.90Q310.85-9.02 311.94-10.82ZM298.88-17.79L298.88-17.79L298.88-17.79Q303.42-17.79 306.05-20.61L306.05-20.61L306.05-20.61Q308.67-23.30 308.67-27.58L308.67-27.58L308.67-27.58Q308.67-29.06 308.13-29.86L308.13-29.86L308.13-29.86Q307.58-30.66 306.50-30.66L306.50-30.66L306.50-30.66Q305.41-30.66 304.48-30.24L304.48-30.24L304.48-30.24Q303.55-29.82 302.59-28.42L302.59-28.42L302.59-28.42Q300.22-25.22 298.88-17.79ZM340.10-17.98L340.10-17.98L340.10-17.98Q342.40-22.08 342.40-26.24L342.40-26.24L342.40-26.24Q342.40-28.99 340.42-28.99L340.42-28.99L340.42-28.99Q338.88-28.99 337.28-26.37L337.28-26.37L337.28-26.37Q335.62-23.74 335.10-20.35L335.10-20.35L331.78 0L318.53 1.28L325.06-32.64L335.62-33.92L334.46-27.46L334.46-27.46Q337.60-33.92 344.64-33.92L344.64-33.92L344.64-33.92Q348.35-33.92 350.37-32L350.37-32L350.37-32Q352.38-30.08 352.38-26.14L352.38-26.14L352.38-26.14Q352.38-22.21 349.79-19.71L349.79-19.71L349.79-19.71Q347.20-17.22 342.78-17.22L342.78-17.22L342.78-17.22Q340.86-17.22 340.10-17.98Z" fill="#e49c49"></path></g></g><style>text {
  font-size: 64px;
  font-family: Arial Black;
  dominant-baseline: central;
  text-anchor: middle;
}</style></svg>